<svg xmlns="http://www.w3.org/2000/svg" width="394.1382141113281" height="411.5541076660156" viewBox="-95.85650634765625 -116.24732208251953 394.1382141113281 411.5541076660156"><title>Neo4j Graph Visualization</title><desc>Created using Neo4j (http://www.neo4j.com/)</desc><g class="layer relationships"><g class="relationship" transform="translate(99.97326811484324 -87.24732269028964) rotate(385.62015518904593)"><path class="outline" fill="#A5ABB6" stroke="none" d="M 24.018736134675446,-6.953439040707552 L 24.277555179777966,-5.987513214418485 A 107.78535079930191 107.78535079930191 0 0 1 40.871111545448876,-9.065886017587943 L 40.766242515284546,-10.060372058974352 A 108.78535079930191 108.78535079930191 0 0 0 24.018736134675446,-6.953439040707552 Z M 60.163249923242795,-10.366479743692466 L 60.08981362768598,-9.369179833688008 A 107.78535079930191 107.78535079930191 0 0 1 76.77224346972463,-6.815941391738342 L 76.08761091425336,-3.8951061920071277 L 83.70163102834266,-5.705271295593915 L 77.68508687701964,-10.710388324713293 L 77.00045432154837,-7.7895531249820795 A 108.78535079930191 108.78535079930191 0 0 0 60.163249923242795,-10.366479743692466"/><text text-anchor="middle" pointer-events="none" font-size="8px" fill="#000000" x="50.465798783025335" y="-7.146728500053939" font-family="sans-serif">trek</text></g><g class="relationship" transform="translate(197.39256167233444 -40.529674397064625) rotate(410.77999194853936)"><path class="outline" fill="#A5ABB6" stroke="none" d="M 21.40063509461097,-12.933012701892217 L 21.90063509461097,-12.06698729810778 A 66.3839858565044 66.3839858565044 0 0 1 43.61531740322116,-19.96105562678784 L 43.44242464193908,-20.94599628139413 A 67.3839858565044 67.3839858565044 0 0 0 21.40063509461097,-12.933012701892217 Z M 62.846857645037,-21.51310809823424 L 62.7317823860773,-20.519751322057942 A 66.3839858565044 66.3839858565044 0 0 1 84.87042959728855,-13.90733556083525 L 83.52472244260852,-11.22609102632465 L 91.35095137025996,-11.214226289000269 L 86.66470580352859,-17.48232827351605 L 85.31899864884856,-14.801083739005449 A 67.3839858565044 67.3839858565044 0 0 0 62.846857645037,-21.51310809823424"/><text text-anchor="middle" pointer-events="none" font-size="8px" fill="#000000" x="53.13871832615884" y="-18.43220871828217" font-family="sans-serif">trek</text></g><g class="relationship" transform="translate(269.28167887027075 47.55227376234136) rotate(499.3407598245642)"><path class="outline" fill="#A5ABB6" stroke="none" d="M 21.40063509461097,12.933012701892217 L 21.90063509461097,12.06698729810778 A 66.71779490471847 66.71779490471847 0 0 0 43.776858788595,20.009918448122846 L 43.60475067598765,20.994996514864127 A 67.71779490471847 67.71779490471847 0 0 1 21.40063509461097,12.933012701892217 Z M 63.00918364359664,21.560578906223043 L 62.89474325008515,20.567148789741296 A 66.71779490471847 66.71779490471847 0 0 0 85.19646185639814,13.91187527410425 L 83.85033241587115,11.23084272500186 L 91.67655937772489,11.217745337724983 L 86.99130111043414,17.486585339574106 L 85.64517166990714,14.805552790471715 A 67.71779490471847 67.71779490471847 0 0 1 63.00918364359664,21.560578906223043"/><text text-anchor="middle" pointer-events="none" font-size="8px" fill="#000000" x="53.3011623776658" y="24.476942612434527" transform="rotate(180 53.3011623776658 21.476942612434527)" font-family="sans-serif">trek</text></g><g class="relationship" transform="translate(182.78747000229703 121.84204126681516) rotate(474.5271933325332)"><path class="outline" fill="#A5ABB6" stroke="none" d="M 25 0.5 L 47.598402970744694 0.5 L 47.598402970744694 -0.5 L 25 -0.5 Z M 66.9343404707447 0.5 L 89.53274344148939 0.5 L 89.53274344148939 3.5 L 96.53274344148939 0 L 89.53274344148939 -3.5 L 89.53274344148939 -0.5 L 66.9343404707447 -0.5 Z"/><text text-anchor="middle" pointer-events="none" font-size="8px" fill="#000000" x="57.266371720744694" y="3" transform="rotate(180 57.266371720744694 0)" font-family="sans-serif">trek</text></g><g class="relationship" transform="translate(269.28167887027075 47.55227376234136) rotate(499.3407598245642)"><path class="outline" fill="#A5ABB6" stroke="none" d="M 25 0.5 L 42.50338926845573 0.5 L 42.50338926845573 -0.5 L 25 -0.5 Z M 64.51510801845572 0.5 L 82.01849728691145 0.5 L 82.01849728691145 3.5 L 89.01849728691145 0 L 82.01849728691145 -3.5 L 82.01849728691145 -0.5 L 64.51510801845572 -0.5 Z"/><text text-anchor="middle" pointer-events="none" font-size="8px" fill="#000000" x="53.50924864345573" y="3" transform="rotate(180 53.50924864345573 0)" font-family="sans-serif">road</text></g><g class="relationship" transform="translate(269.28167887027075 47.55227376234136) rotate(499.3407598245642)"><path class="outline" fill="#A5ABB6" stroke="none" d="M 21.40063509461097,-12.933012701892217 L 21.90063509461097,-12.06698729810778 A 66.71779490471847 66.71779490471847 0 0 1 30.83704926074248,-16.37476979068412 L 30.470992748816297,-17.305362413734848 A 67.71779490471847 67.71779490471847 0 0 0 21.40063509461097,-12.933012701892217 Z M 76.33554638501008,-18.642179828985704 L 76.02431336468366,-17.69184619964362 A 66.71779490471847 66.71779490471847 0 0 1 85.19646185639814,-13.91187527410425 L 83.85033241587115,-11.23084272500186 L 91.67655937772489,-11.217745337724983 L 86.99130111043414,-17.486585339574106 L 85.64517166990714,-14.805552790471715 A 67.71779490471847 67.71779490471847 0 0 0 76.33554638501008,-18.642179828985704"/><text text-anchor="middle" pointer-events="none" font-size="8px" fill="#000000" x="53.30116237766578" y="-18.476942612434527" transform="rotate(180 53.30116237766578 -21.476942612434527)" font-family="sans-serif">twowheeler</text></g><g class="relationship" transform="translate(197.39256167233444 -40.529674397064625) rotate(410.77999194853936)"><path class="outline" fill="#A5ABB6" stroke="none" d="M 25 0.5 L 42.34146853725746 0.5 L 42.34146853725746 -0.5 L 25 -0.5 Z M 64.35318728725747 0.5 L 81.69465582451492 0.5 L 81.69465582451492 3.5 L 88.69465582451492 0 L 81.69465582451492 -3.5 L 81.69465582451492 -0.5 L 64.35318728725747 -0.5 Z"/><text text-anchor="middle" pointer-events="none" font-size="8px" fill="#000000" x="53.34732791225746" y="3" font-family="sans-serif">road</text></g><g class="relationship" transform="translate(197.39256167233444 -40.529674397064625) rotate(410.77999194853936)"><path class="outline" fill="#A5ABB6" stroke="none" d="M 21.40063509461097,12.933012701892217 L 21.90063509461097,12.06698729810778 A 66.3839858565044 66.3839858565044 0 0 0 30.68094867647962,16.309284801695732 L 30.313214214147816,17.23921564063675 A 67.3839858565044 67.3839858565044 0 0 1 21.40063509461097,12.933012701892217 Z M 76.17014152902836,18.57942513606983 L 75.85734445657482,17.62960515761892 A 66.3839858565044 66.3839858565044 0 0 0 84.87042959728855,13.90733556083525 L 83.52472244260852,11.22609102632465 L 91.35095137025996,11.214226289000269 L 86.66470580352859,17.48232827351605 L 85.31899864884856,14.801083739005449 A 67.3839858565044 67.3839858565044 0 0 1 76.17014152902836,18.57942513606983"/><text text-anchor="middle" pointer-events="none" font-size="8px" fill="#000000" x="53.13871832615886" y="24.43220871828217" font-family="sans-serif">twowheeler</text></g><g class="relationship" transform="translate(99.97326811484324 -87.24732269028964) rotate(385.62015518904593)"><path class="outline" fill="#A5ABB6" stroke="none" d="M 24.018736134675446,6.953439040707552 L 24.277555179777966,5.987513214418485 A 107.78535079930191 107.78535079930191 0 0 0 39.54763796792132,8.918052773775912 L 39.43049014877766,9.91116726288071 A 108.78535079930191 108.78535079930191 0 0 1 24.018736134675446,6.953439040707552 Z M 61.50304521196727,10.259498249413909 L 61.41729296321565,9.263181757613225 A 107.78535079930191 107.78535079930191 0 0 0 76.77224346972463,6.815941391738342 L 76.08761091425336,3.8951061920071277 L 83.70163102834266,5.705271295593915 L 77.68508687701964,10.710388324713293 L 77.00045432154837,7.7895531249820795 A 108.78535079930191 108.78535079930191 0 0 1 61.50304521196727,10.259498249413909"/><text text-anchor="middle" pointer-events="none" font-size="8px" fill="#000000" x="50.465798783025384" y="13.14672850005394" font-family="sans-serif">road</text></g><g class="relationship" transform="translate(99.97326811484324 -87.24732269028964) rotate(448.5709589340301)"><path class="outline" fill="#A5ABB6" stroke="none" d="M 21.40063509461097,12.933012701892217 L 21.90063509461097,12.06698729810778 A 64.55305894827801 64.55305894827801 0 0 0 22.997372482970267,12.68600391305619 L 22.51436218735032,13.56161858534368 A 65.55305894827801 65.55305894827801 0 0 1 21.40063509461097,12.933012701892217 Z M 82.38171033032229,15.337622360365614 L 81.95145511090033,14.43491507327851 A 64.55305894827801 64.55305894827801 0 0 0 83.08295859421132,13.882000671347683 L 81.73960812423802,11.199574621141922 L 89.56584445635364,11.194587249777584 L 84.87409255417573,17.458568738288697 L 83.53074208420243,14.776142688082938 A 65.55305894827801 65.55305894827801 0 0 1 82.38171033032229,15.337622360365614"/><text text-anchor="middle" pointer-events="none" font-size="8px" fill="#000000" x="52.24817193289171" y="24.186851187658533" font-family="sans-serif">PublicTransport</text></g><g class="relationship" transform="translate(102.76441313456607 24.637262747587943) rotate(410.5373539099495)"><path class="outline" fill="#A5ABB6" stroke="none" d="M 25 0.5 L 49.78530478964232 0.5 L 49.78530478964232 -0.5 L 25 -0.5 Z M 69.12124228964231 0.5 L 93.90654707928464 0.5 L 93.90654707928464 3.5 L 100.90654707928464 0 L 93.90654707928464 -3.5 L 93.90654707928464 -0.5 L 69.12124228964231 -0.5 Z"/><text text-anchor="middle" pointer-events="none" font-size="8px" fill="#000000" x="59.45327353964232" y="3" font-family="sans-serif">trek</text></g><g class="relationship" transform="translate(102.76441313456607 24.637262747587943) rotate(518.2677709381793)"><path class="outline" fill="#A5ABB6" stroke="none" d="M 24.018736134675446,-6.953439040707552 L 24.277555179777966,-5.987513214418485 A 138.4806488833287 138.4806488833287 0 0 1 48.5728417984258,-10.223944327488795 L 48.48946449781653,-11.220462378375544 A 139.4806488833287 139.4806488833287 0 0 0 24.018736134675446,-6.953439040707552 Z M 67.8774424050996,-11.490181885589607 L 67.82181850330194,-10.491730093288766 A 138.4806488833287 138.4806488833287 0 0 1 92.22555197258205,-6.932784572720049 L 91.53000567620327,-4.014529040797981 L 99.15073926313002,-5.79621913648989 L 93.15294703442044,-10.82379194861614 L 92.45740073804166,-7.905536416694071 A 139.4806488833287 139.4806488833287 0 0 0 67.8774424050996,-11.490181885589607"/><text text-anchor="middle" pointer-events="none" font-size="8px" fill="#000000" x="58.18571607760594" y="-8.192680036790875" transform="rotate(180 58.18571607760594 -11.192680036790875)" font-family="sans-serif">trek</text></g><g class="relationship" transform="translate(-11.929455958032328 70.35424597260774) rotate(423.76004861226806)"><path class="outline" fill="#A5ABB6" stroke="none" d="M 24.018736134675446,-6.953439040707552 L 24.277555179777966,-5.987513214418485 A 113.15946202509602 113.15946202509602 0 0 1 42.214327896887745,-9.272575748147474 L 42.1140176710754,-10.267531957534345 A 114.15946202509602 114.15946202509602 0 0 0 24.018736134675446,-6.953439040707552 Z M 61.509299257185425,-10.566599472252946 L 61.43971308332968,-9.569023528072194 A 113.15946202509602 113.15946202509602 0 0 1 79.46924301530356,-6.838547051736785 L 78.78249892515942,-3.9182075929320233 L 86.3978257675387,-5.722867417867898 L 80.38490180216243,-10.732332996809799 L 79.69815771201829,-7.811993538005038 A 114.15946202509602 114.15946202509602 0 0 0 61.509299257185425,-10.566599472252946"/><text text-anchor="middle" pointer-events="none" font-size="8px" fill="#000000" x="51.81300377804761" y="-7.32981871894259" font-family="sans-serif">trek</text></g><g class="relationship" transform="translate(37.02951589346526 169.67712932207112) rotate(393.35300579698367)"><path class="outline" fill="#A5ABB6" stroke="none" d="M 24.018736134675446,6.953439040707552 L 24.277555179777966,5.987513214418485 A 119.86515732110801 119.86515732110801 0 0 0 43.89374141810627,9.52779073980004 L 43.79857448573388,10.523252067518413 A 120.86515732110801 120.86515732110801 0 0 1 24.018736134675446,6.953439040707552 Z M 63.191784185939895,10.81396221285317 L 63.12649784848629,9.816095641541196 A 119.86515732110801 119.86515732110801 0 0 0 82.83998603036235,6.865381965744847 L 82.1507353947194,3.945633079065413 L 89.76760853855485,5.7437552970245465 L 83.75898687788627,10.758380481317426 L 83.06973624224332,7.838631594637992 A 120.86515732110801 120.86515732110801 0 0 1 63.191784185939895,10.81396221285317"/><text text-anchor="middle" pointer-events="none" font-size="8px" fill="#000000" x="53.496832902056326" y="13.55829810226129" font-family="sans-serif">trek</text></g><g class="relationship" transform="translate(37.02951589346526 169.67712932207112) rotate(393.35300579698367)"><path class="outline" fill="#A5ABB6" stroke="none" d="M 24.018736134675446,-6.953439040707552 L 24.277555179777966,-5.987513214418485 A 119.86515732110801 119.86515732110801 0 0 1 30.547747490880447,-7.488098654596783 L 30.341238828972145,-8.46654342695588 A 120.86515732110801 120.86515732110801 0 0 0 24.018736134675446,-6.953439040707552 Z M 76.7047207557525,-9.161546202541658 L 76.5276326644327,-8.177351197518405 A 119.86515732110801 119.86515732110801 0 0 1 82.83998603036235,-6.865381965744847 L 82.1507353947194,-3.945633079065413 L 89.76760853855485,-5.7437552970245465 L 83.75898687788627,-10.758380481317426 L 83.06973624224332,-7.838631594637992 A 120.86515732110801 120.86515732110801 0 0 0 76.7047207557525,-9.161546202541658"/><text text-anchor="middle" pointer-events="none" font-size="8px" fill="#000000" x="53.496832902056276" y="-7.55829810226129" font-family="sans-serif">twowheeler</text></g><g class="relationship" transform="translate(-11.929455958032328 70.35424597260774) rotate(423.76004861226806)"><path class="outline" fill="#A5ABB6" stroke="none" d="M 24.018736134675446,6.953439040707552 L 24.277555179777966,5.987513214418485 A 113.15946202509602 113.15946202509602 0 0 0 28.890273741908327,7.12028707834628 L 28.672217691606075,8.096223325714206 A 114.15946202509602 114.15946202509602 0 0 1 24.018736134675446,6.953439040707552 Z M 75.01165431157887,8.81075897614376 L 74.82379187034348,7.828563627359671 A 113.15946202509602 113.15946202509602 0 0 0 79.46924301530356,6.838547051736785 L 78.78249892515942,3.9182075929320233 L 86.3978257675387,5.722867417867898 L 80.38490180216243,10.732332996809799 L 79.69815771201829,7.811993538005038 A 114.15946202509602 114.15946202509602 0 0 1 75.01165431157887,8.81075897614376"/><text text-anchor="middle" pointer-events="none" font-size="8px" fill="#000000" x="51.81300377804766" y="13.32981871894259" font-family="sans-serif">twowheeler</text></g><g class="relationship" transform="translate(102.76441313456607 24.637262747587943) rotate(518.2677709381793)"><path class="outline" fill="#A5ABB6" stroke="none" d="M 24.018736134675446,6.953439040707552 L 24.277555179777966,5.987513214418485 A 138.4806488833287 138.4806488833287 0 0 0 35.180570792929686,8.442090944368118 L 35.00048488275302,9.425741830076987 A 139.4806488833287 139.4806488833287 0 0 1 24.018736134675446,6.953439040707552 Z M 81.41112737281544,10.071392226511847 L 81.25847434851178,9.083112380430322 A 138.4806488833287 138.4806488833287 0 0 0 92.22555197258205,6.932784572720049 L 91.53000567620327,4.014529040797981 L 99.15073926313002,5.79621913648989 L 93.15294703442044,10.82379194861614 L 92.45740073804166,7.905536416694071 A 139.4806488833287 139.4806488833287 0 0 1 81.41112737281544,10.071392226511847"/><text text-anchor="middle" pointer-events="none" font-size="8px" fill="#000000" x="58.18571607760593" y="14.192680036790875" transform="rotate(180 58.18571607760593 11.192680036790875)" font-family="sans-serif">twowheeler</text></g><g class="relationship" transform="translate(99.97326811484324 -87.24732269028964) rotate(448.5709589340301)"><path class="outline" fill="#A5ABB6" stroke="none" d="M 25 0.5 L 41.45383806236748 0.5 L 41.45383806236748 -0.5 L 25 -0.5 Z M 63.46555681236748 0.5 L 79.91939487473496 0.5 L 79.91939487473496 3.5 L 86.91939487473496 0 L 79.91939487473496 -3.5 L 79.91939487473496 -0.5 L 63.46555681236748 -0.5 Z"/><text text-anchor="middle" pointer-events="none" font-size="8px" fill="#000000" x="52.45969743736748" y="3" font-family="sans-serif">road</text></g><g class="relationship" transform="translate(99.97326811484324 -87.24732269028964) rotate(448.5709589340301)"><path class="outline" fill="#A5ABB6" stroke="none" d="M 21.40063509461097,-12.933012701892217 L 21.90063509461097,-12.06698729810778 A 64.55305894827801 64.55305894827801 0 0 1 42.7299178538474,-19.692375235760885 L 42.55258703635547,-20.67652653569786 A 65.55305894827801 65.55305894827801 0 0 0 21.40063509461097,-12.933012701892217 Z M 61.95695822230744,-21.25216981282911 L 61.838278884098436,-20.25923717932254 A 64.55305894827801 64.55305894827801 0 0 1 83.08295859421132,-13.882000671347683 L 81.73960812423802,-11.199574621141922 L 89.56584445635364,-11.194587249777584 L 84.87409255417573,-17.458568738288697 L 83.53074208420243,-14.776142688082938 A 65.55305894827801 65.55305894827801 0 0 0 61.95695822230744,-21.25216981282911"/><text text-anchor="middle" pointer-events="none" font-size="8px" fill="#000000" x="52.24817193289172" y="-18.186851187658533" font-family="sans-serif">trek</text></g><g class="relationship" transform="translate(102.76441313456607 24.637262747587943) rotate(325.4462400683113)"><path class="outline" fill="#A5ABB6" stroke="none" d="M 25 0.5 L 44.28030405367324 0.5 L 44.28030405367324 -0.5 L 25 -0.5 Z M 63.61624155367324 0.5 L 82.89654560734648 0.5 L 82.89654560734648 3.5 L 89.89654560734648 0 L 82.89654560734648 -3.5 L 82.89654560734648 -0.5 L 63.61624155367324 -0.5 Z"/><text text-anchor="middle" pointer-events="none" font-size="8px" fill="#000000" x="53.94827280367324" y="3" font-family="sans-serif">trek</text></g><g class="relationship" transform="translate(-11.929455958032328 70.35424597260774) rotate(477.6278776591865)"><path class="outline" fill="#A5ABB6" stroke="none" d="M 24.018736134675446,-6.953439040707552 L 24.277555179777966,-5.987513214418485 A 128.51295439240607 128.51295439240607 0 0 1 46.06453723099339,-9.853190094256874 L 45.975249593477145,-10.849195976662571 A 129.51295439240607 129.51295439240607 0 0 0 24.018736134675446,-6.953439040707552 Z M 65.36593271536128,-11.12977419377458 L 65.30550032515634,-10.131601900924238 A 128.51295439240607 128.51295439240607 0 0 1 87.19520834373759,-6.897915536948978 L 86.5029189205034,-3.9788856716550174 L 94.12165959996253,-5.7690785269515406 L 88.11826090804983,-10.789955357340926 L 87.42597148481565,-7.870925492046966 A 129.51295439240607 129.51295439240607 0 0 0 65.36593271536128,-11.12977419377458"/><text text-anchor="middle" pointer-events="none" font-size="8px" fill="#000000" x="55.67256631734158" y="-7.852982120961599" transform="rotate(180 55.67256631734158 -10.852982120961599)" font-family="sans-serif">trek</text></g><g class="relationship" transform="translate(-66.8565054752604 175.29560749983608) rotate(356.9042825294521)"><path class="outline" fill="#A5ABB6" stroke="none" d="M 21.40063509461097,12.933012701892217 L 21.90063509461097,12.06698729810778 A 56.4014296464341 56.4014296464341 0 0 0 38.80294078373355,18.4801032939493 L 38.60261945846003,19.45983354592719 A 57.4014296464341 57.4014296464341 0 0 1 21.40063509461097,12.933012701892217 Z M 58.004947800217465,20.076619526661275 L 57.86725788672451,19.08614414194831 A 56.4014296464341 56.4014296464341 0 0 0 75.14276154917336,13.759515978336838 L 73.81080533166309,11.071413927700418 L 81.63699237024339,11.09963514591894 L 76.9187031725204,17.343652045852068 L 75.58674695501013,14.655549995215646 A 57.4014296464341 57.4014296464341 0 0 1 58.004947800217465,20.076619526661275"/><text text-anchor="middle" pointer-events="none" font-size="8px" fill="#000000" x="48.29340792111458" y="23.094616733269802" font-family="sans-serif">trek</text></g><g class="relationship" transform="translate(-66.8565054752604 175.29560749983608) rotate(356.9042825294521)"><path class="outline" fill="#A5ABB6" stroke="none" d="M 25 0.5 L 37.513062021106784 0.5 L 37.513062021106784 -0.5 L 25 -0.5 Z M 59.524780771106784 0.5 L 72.03784279221357 0.5 L 72.03784279221357 3.5 L 79.03784279221357 0 L 72.03784279221357 -3.5 L 72.03784279221357 -0.5 L 59.524780771106784 -0.5 Z"/><text text-anchor="middle" pointer-events="none" font-size="8px" fill="#000000" x="48.518921396106784" y="3" font-family="sans-serif">road</text></g><g class="relationship" transform="translate(-66.8565054752604 175.29560749983608) rotate(356.9042825294521)"><path class="outline" fill="#A5ABB6" stroke="none" d="M 21.40063509461097,-12.933012701892217 L 21.90063509461097,-12.06698729810778 A 56.4014296464341 56.4014296464341 0 0 1 26.074132878173472,-14.249498245256682 L 25.64812919014154,-15.154219670770189 A 57.4014296464341 57.4014296464341 0 0 0 21.40063509461097,-12.933012701892217 Z M 71.20675031506651,-16.602495275453855 L 70.83906957040148,-15.672543196041929 A 56.4014296464341 56.4014296464341 0 0 1 75.14276154917336,-13.759515978336838 L 73.81080533166309,-11.071413927700418 L 81.63699237024339,-11.09963514591894 L 76.9187031725204,-17.343652045852068 L 75.58674695501013,-14.655549995215646 A 57.4014296464341 57.4014296464341 0 0 0 71.20675031506651,-16.602495275453855"/><text text-anchor="middle" pointer-events="none" font-size="8px" fill="#000000" x="48.293407921114564" y="-17.094616733269802" font-family="sans-serif">twowheeler</text></g><g class="relationship" transform="translate(-11.929455958032328 70.35424597260774) rotate(477.6278776591865)"><path class="outline" fill="#A5ABB6" stroke="none" d="M 24.018736134675446,6.953439040707552 L 24.277555179777966,5.987513214418485 A 128.51295439240607 128.51295439240607 0 0 0 32.69476810349562,7.942134808123427 L 32.50144605800308,8.923270164089459 A 129.51295439240607 129.51295439240607 0 0 1 24.018736134675446,6.953439040707552 Z M 78.8898189566308,9.594498035784966 L 78.72496545809183,8.608179971457105 A 128.51295439240607 128.51295439240607 0 0 0 87.19520834373759,6.897915536948978 L 86.5029189205034,3.9788856716550174 L 94.12165959996253,5.7690785269515406 L 88.11826090804983,10.789955357340926 L 87.42597148481565,7.870925492046966 A 129.51295439240607 129.51295439240607 0 0 1 78.8898189566308,9.594498035784966"/><text text-anchor="middle" pointer-events="none" font-size="8px" fill="#000000" x="55.67256631734161" y="13.852982120961599" transform="rotate(180 55.67256631734161 10.852982120961599)" font-family="sans-serif">twowheeler</text></g><g class="relationship" transform="translate(-66.8565054752604 175.29560749983608) rotate(407.62847297160477)"><path class="outline" fill="#A5ABB6" stroke="none" d="M 25 0.5 L 48.4267657722131 0.5 L 48.4267657722131 -0.5 L 25 -0.5 Z M 67.7627032722131 0.5 L 91.1894690444262 0.5 L 91.1894690444262 3.5 L 98.1894690444262 0 L 91.1894690444262 -3.5 L 91.1894690444262 -0.5 L 67.7627032722131 -0.5 Z"/><text text-anchor="middle" pointer-events="none" font-size="8px" fill="#000000" x="58.0947345222131" y="3" font-family="sans-serif">trek</text></g><g class="relationship" transform="translate(16.165230132668015 266.3067974717009) rotate(343.7327934223814)"><path class="outline" fill="#A5ABB6" stroke="none" d="M 25 0.5 L 47.339891822908626 0.5 L 47.339891822908626 -0.5 L 25 -0.5 Z M 66.67582932290863 0.5 L 89.01572114581725 0.5 L 89.01572114581725 3.5 L 96.01572114581725 0 L 89.01572114581725 -3.5 L 89.01572114581725 -0.5 L 66.67582932290863 -0.5 Z"/><text text-anchor="middle" pointer-events="none" font-size="8px" fill="#000000" x="57.007860572908626" y="3" font-family="sans-serif">trek</text></g></g><g class="layer nodes"><g class="node" transform="translate(99.97326811484324,-87.24732269028964)"><circle class="outline" cx="0" cy="0" r="25" fill="#F79767" stroke="#f36924" stroke-width="2px"/><text text-anchor="middle" pointer-events="none" font-family="sans-serif" dy="1.5625" font-size="25" fill="#FFFFFF"/><text text-anchor="middle" pointer-events="none" x="0" y="5" font-size="10px" fill="#FFFFFF" font-family="sans-serif"> Darjeeling</text></g><g class="node" transform="translate(132.33618069902275,232.408198548563)"><circle class="outline" cx="0" cy="0" r="25" fill="#57C7E3" stroke="#23b3d7" stroke-width="2px"/><text text-anchor="middle" pointer-events="none" font-family="sans-serif" dy="1.5625" font-size="25" fill="#2A2C34"/><text text-anchor="middle" pointer-events="none" x="0" y="5" font-size="10px" fill="#2A2C34" font-family="sans-serif"> Sandak…</text></g><g class="node" transform="translate(197.39256167233444,-40.529674397064625)"><circle class="outline" cx="0" cy="0" r="25" fill="#F16667" stroke="#eb2728" stroke-width="2px"/><text text-anchor="middle" pointer-events="none" font-family="sans-serif" dy="1.5625" font-size="25" fill="#FFFFFF"/><text text-anchor="middle" pointer-events="none" x="0" y="5" font-size="10px" fill="#FFFFFF" font-family="sans-serif"> Tumbling</text></g><g class="node" transform="translate(269.28167887027075,47.55227376234136)"><circle class="outline" cx="0" cy="0" r="25" fill="#F16667" stroke="#eb2728" stroke-width="2px"/><text text-anchor="middle" pointer-events="none" font-family="sans-serif" dy="1.5625" font-size="25" fill="#FFFFFF"/><text text-anchor="middle" pointer-events="none" x="0" y="5" font-size="10px" fill="#FFFFFF" font-family="sans-serif"> Gairibus</text></g><g class="node" transform="translate(182.78747000229703,121.84204126681516)"><circle class="outline" cx="0" cy="0" r="25" fill="#F16667" stroke="#eb2728" stroke-width="2px"/><text text-anchor="middle" pointer-events="none" font-family="sans-serif" dy="1.5625" font-size="25" fill="#FFFFFF"/><text text-anchor="middle" pointer-events="none" x="0" y="5" font-size="10px" fill="#FFFFFF" font-family="sans-serif"> BhikeBh…</text></g><g class="node" transform="translate(102.76441313456607,24.637262747587943)"><circle class="outline" cx="0" cy="0" r="25" fill="#F79767" stroke="#f36924" stroke-width="2px"/><text text-anchor="middle" pointer-events="none" font-family="sans-serif" dy="1.5625" font-size="25" fill="#FFFFFF"/><text text-anchor="middle" pointer-events="none" x="0" y="5" font-size="10px" fill="#FFFFFF" font-family="sans-serif"> Rimbik</text></g><g class="node" transform="translate(-11.929455958032328,70.35424597260774)"><circle class="outline" cx="0" cy="0" r="25" fill="#F16667" stroke="#eb2728" stroke-width="2px"/><text text-anchor="middle" pointer-events="none" font-family="sans-serif" dy="1.5625" font-size="25" fill="#FFFFFF"/><text text-anchor="middle" pointer-events="none" x="0" y="5" font-size="10px" fill="#FFFFFF" font-family="sans-serif"> Sirikhola</text></g><g class="node" transform="translate(37.02951589346526,169.67712932207112)"><circle class="outline" cx="0" cy="0" r="25" fill="#F16667" stroke="#eb2728" stroke-width="2px"/><text text-anchor="middle" pointer-events="none" font-family="sans-serif" dy="1.5625" font-size="25" fill="#FFFFFF"/><text text-anchor="middle" pointer-events="none" x="0" y="5" font-size="10px" fill="#FFFFFF" font-family="sans-serif"> Gurdum</text></g><g class="node" transform="translate(-66.8565054752604,175.29560749983608)"><circle class="outline" cx="0" cy="0" r="25" fill="#F16667" stroke="#eb2728" stroke-width="2px"/><text text-anchor="middle" pointer-events="none" font-family="sans-serif" dy="1.5625" font-size="25" fill="#FFFFFF"/><text text-anchor="middle" pointer-events="none" x="0" y="5" font-size="10px" fill="#FFFFFF" font-family="sans-serif"> Rammam</text></g><g class="node" transform="translate(16.165230132668015,266.3067974717009)"><circle class="outline" cx="0" cy="0" r="25" fill="#57C7E3" stroke="#23b3d7" stroke-width="2px"/><text text-anchor="middle" pointer-events="none" font-family="sans-serif" dy="1.5625" font-size="25" fill="#2A2C34"/><text text-anchor="middle" pointer-events="none" x="0" y="5" font-size="10px" fill="#2A2C34" font-family="sans-serif"> Sabargr…</text></g></g></svg>