<svg xmlns="http://www.w3.org/2000/svg" width="158.27099609375" height="242.67747497558594" viewBox="1.5370063781738281 -21.314762115478516 158.27099609375 242.67747497558594"><title>Neo4j Graph Visualization</title><desc>Created using Neo4j (http://www.neo4j.com/)</desc><g class="layer relationships"><g class="relationship" transform="translate(130.80800109832464 7.685237163136917) rotate(518.7710822059505)"><path class="outline" fill="#A5ABB6" stroke="none" d="M 21.40063509461097,12.933012701892217 L 21.90063509461097,12.06698729810778 A 59.92101009730445 59.92101009730445 0 0 0 40.4952330728819,19.007054911075784 L 40.30555157298855,19.9889005856083 A 60.92101009730445 60.92101009730445 0 0 1 21.40063509461097,12.933012701892217 Z M 59.7091886524439,20.587259626466683 L 59.580365304035105,19.59559206881203 A 59.92101009730445 59.92101009730445 0 0 0 78.56725341728311,13.814442337046998 L 77.23018750848155,11.1288781960292 L 85.05641406445824,11.142215906679658 L 80.35000796235187,17.39519452507073 L 79.0129420535503,14.709630384052929 A 60.92101009730445 60.92101009730445 0 0 1 59.7091886524439,20.587259626466683"/><text text-anchor="middle" pointer-events="none" font-size="8px" fill="#000000" x="49.998794455350136" y="23.56617224117202" transform="rotate(180 49.998794455350136 20.56617224117202)" font-family="sans-serif">trek</text></g><g class="relationship" transform="translate(30.662375295325425 46.58732567138639) rotate(450.0673154030882)"><path class="outline" fill="#A5ABB6" stroke="none" d="M 25 0.5 L 40.18595385596372 0.5 L 40.18595385596372 -0.5 L 25 -0.5 Z M 59.52189135596372 0.5 L 74.70784521192743 0.5 L 74.70784521192743 3.5 L 81.70784521192743 0 L 74.70784521192743 -3.5 L 74.70784521192743 -0.5 L 59.52189135596372 -0.5 Z"/><text text-anchor="middle" pointer-events="none" font-size="8px" fill="#000000" x="49.85392260596372" y="3" transform="rotate(180 49.85392260596372 0)" font-family="sans-serif">trek</text></g><g class="relationship" transform="translate(30.537006899578824 153.29509723718198) rotate(381.3258368553609)"><path class="outline" fill="#A5ABB6" stroke="none" d="M 25 0.5 L 40.54483790918681 0.5 L 40.54483790918681 -0.5 L 25 -0.5 Z M 59.88077540918681 0.5 L 75.42561331837362 0.5 L 75.42561331837362 3.5 L 82.42561331837362 0 L 75.42561331837362 -3.5 L 75.42561331837362 -0.5 L 59.88077540918681 -0.5 Z"/><text text-anchor="middle" pointer-events="none" font-size="8px" fill="#000000" x="50.21280665918681" y="3" font-family="sans-serif">trek</text></g><g class="relationship" transform="translate(130.80800109832464 7.685237163136917) rotate(518.7710822059505)"><path class="outline" fill="#A5ABB6" stroke="none" d="M 25 0.5 L 39.21219824480327 0.5 L 39.21219824480327 -0.5 L 25 -0.5 Z M 61.22391699480327 0.5 L 75.43611523960654 0.5 L 75.43611523960654 3.5 L 82.43611523960654 0 L 75.43611523960654 -3.5 L 75.43611523960654 -0.5 L 61.22391699480327 -0.5 Z"/><text text-anchor="middle" pointer-events="none" font-size="8px" fill="#000000" x="50.21805761980327" y="3" transform="rotate(180 50.21805761980327 0)" font-family="sans-serif">road</text></g><g class="relationship" transform="translate(130.80800109832464 7.685237163136917) rotate(518.7710822059505)"><path class="outline" fill="#A5ABB6" stroke="none" d="M 21.40063509461097,-12.933012701892217 L 21.90063509461097,-12.06698729810778 A 59.92101009730445 59.92101009730445 0 0 1 23.462286242736536,-12.937802599861449 L 22.988348072228224,-13.818360724311638 A 60.92101009730445 60.92101009730445 0 0 0 21.40063509461097,-12.933012701892217 Z M 77.37369396983277,-15.495467097451211 L 76.95491309627502,-14.587379777893112 A 59.92101009730445 59.92101009730445 0 0 1 78.56725341728311,-13.814442337046998 L 77.23018750848155,-11.1288781960292 L 85.05641406445824,-11.142215906679658 L 80.35000796235187,-17.39519452507073 L 79.0129420535503,-14.709630384052929 A 60.92101009730445 60.92101009730445 0 0 0 77.37369396983277,-15.495467097451211"/><text text-anchor="middle" pointer-events="none" font-size="8px" fill="#000000" x="49.99879445535014" y="-17.56617224117202" transform="rotate(180 49.99879445535014 -20.56617224117202)" font-family="sans-serif">PublicTrans…</text></g></g><g class="layer nodes"><g class="node" transform="translate(130.80800109832464,7.685237163136917)"><circle class="outline" cx="0" cy="0" r="25" fill="#F79767" stroke="#f36924" stroke-width="2px"/><text text-anchor="middle" pointer-events="none" font-family="sans-serif" dy="1.5625" font-size="25" fill="#FFFFFF"/><text text-anchor="middle" pointer-events="none" x="0" y="5" font-size="10px" fill="#FFFFFF" font-family="sans-serif"> Darjeeling</text></g><g class="node" transform="translate(130.60690154126374,192.36271276757765)"><circle class="outline" cx="0" cy="0" r="25" fill="#57C7E3" stroke="#23b3d7" stroke-width="2px"/><text text-anchor="middle" pointer-events="none" font-family="sans-serif" dy="1.5625" font-size="25" fill="#2A2C34"/><text text-anchor="middle" pointer-events="none" x="0" y="5" font-size="10px" fill="#2A2C34" font-family="sans-serif"> Sandak…</text></g><g class="node" transform="translate(30.662375295325425,46.58732567138639)"><circle class="outline" cx="0" cy="0" r="25" fill="#F79767" stroke="#f36924" stroke-width="2px"/><text text-anchor="middle" pointer-events="none" font-family="sans-serif" dy="1.5625" font-size="25" fill="#FFFFFF"/><text text-anchor="middle" pointer-events="none" x="0" y="5" font-size="10px" fill="#FFFFFF" font-family="sans-serif"> Rimbik</text></g><g class="node" transform="translate(30.537006899578824,153.29509723718198)"><circle class="outline" cx="0" cy="0" r="25" fill="#F16667" stroke="#eb2728" stroke-width="2px"/><text text-anchor="middle" pointer-events="none" font-family="sans-serif" dy="1.5625" font-size="25" fill="#FFFFFF"/><text text-anchor="middle" pointer-events="none" x="0" y="5" font-size="10px" fill="#FFFFFF" font-family="sans-serif"> BhikeBh…</text></g></g></svg>