<svg xmlns="http://www.w3.org/2000/svg" width="240.48231506347656" height="253.82852172851562" viewBox="-7.8849945068359375 -9.901077270507812 240.48231506347656 253.82852172851562"><title>Neo4j Graph Visualization</title><desc>Created using Neo4j (http://www.neo4j.com/)</desc><g class="layer relationships"><g class="relationship" transform="translate(123.44597338716223 130.11729512713765) rotate(411.9005403954194)"><path class="outline" fill="#A5ABB6" stroke="none" d="M 25 0.5 L 27.604721208141115 0.5 L 27.604721208141115 -0.5 L 25 -0.5 Z M 73.16722120814111 0.5 L 75.77194241628223 0.5 L 75.77194241628223 3.5 L 82.77194241628223 0 L 75.77194241628223 -3.5 L 75.77194241628223 -0.5 L 73.16722120814111 -0.5 Z"/><text text-anchor="middle" pointer-events="none" font-size="8px" fill="#000000" x="50.385971208141115" y="3" font-family="sans-serif">ACTED_IN</text></g><g class="relationship" transform="translate(123.44597338716223 130.11729512713765) rotate(315.2121517509312)"><path class="outline" fill="#A5ABB6" stroke="none" d="M 25 0.5 L 30.1856199445269 0.5 L 30.1856199445269 -0.5 L 25 -0.5 Z M 75.7481199445269 0.5 L 80.9337398890538 0.5 L 80.9337398890538 3.5 L 87.9337398890538 0 L 80.9337398890538 -3.5 L 80.9337398890538 -0.5 L 75.7481199445269 -0.5 Z"/><text text-anchor="middle" pointer-events="none" font-size="8px" fill="#000000" x="52.9668699445269" y="3" font-family="sans-serif">ACTED_IN</text></g><g class="relationship" transform="translate(123.44597338716223 130.11729512713765) rotate(258.6391110041872)"><path class="outline" fill="#A5ABB6" stroke="none" d="M 25 0.5 L 30.337328145534997 0.5 L 30.337328145534997 -0.5 L 25 -0.5 Z M 75.899828145535 0.5 L 81.23715629107 0.5 L 81.23715629107 3.5 L 88.23715629107 0 L 81.23715629107 -3.5 L 81.23715629107 -0.5 L 75.899828145535 -0.5 Z"/><text text-anchor="middle" pointer-events="none" font-size="8px" fill="#000000" x="53.118578145535" y="3" transform="rotate(180 53.118578145535 0)" font-family="sans-serif">ACTED_IN</text></g><g class="relationship" transform="translate(123.44597338716223 130.11729512713765) rotate(205.34181790421178)"><path class="outline" fill="#A5ABB6" stroke="none" d="M 25 0.5 L 30.332115620356916 0.5 L 30.332115620356916 -0.5 L 25 -0.5 Z M 75.89461562035692 0.5 L 81.22673124071383 0.5 L 81.22673124071383 3.5 L 88.22673124071383 0 L 81.22673124071383 -3.5 L 81.22673124071383 -0.5 L 75.89461562035692 -0.5 Z"/><text text-anchor="middle" pointer-events="none" font-size="8px" fill="#000000" x="53.113365620356916" y="3" transform="rotate(180 53.113365620356916 0)" font-family="sans-serif">ACTED_IN</text></g><g class="relationship" transform="translate(123.44597338716223 130.11729512713765) rotate(508.73673011332164)"><path class="outline" fill="#A5ABB6" stroke="none" d="M 25 0.5 L 30.169740636598654 0.5 L 30.169740636598654 -0.5 L 25 -0.5 Z M 75.73224063659865 0.5 L 80.90198127319731 0.5 L 80.90198127319731 3.5 L 87.90198127319731 0 L 80.90198127319731 -3.5 L 80.90198127319731 -0.5 L 75.73224063659865 -0.5 Z"/><text text-anchor="middle" pointer-events="none" font-size="8px" fill="#000000" x="52.950990636598654" y="3" transform="rotate(180 52.950990636598654 0)" font-family="sans-serif">ACTED_IN</text></g></g><g class="layer nodes"><g class="node" transform="translate(123.44597338716223,130.11729512713765)"><circle class="outline" cx="0" cy="0" r="25" fill="#F79767" stroke="#f36924" stroke-width="2px"/><text text-anchor="middle" pointer-events="none" font-family="sans-serif" dy="1.5625" font-size="25" fill="#FFFFFF"/><text text-anchor="middle" pointer-events="none" font-family="sans-serif" dy="1.5625" font-size="25" fill="#FFFFFF"/><text text-anchor="middle" pointer-events="none" x="0" y="0" font-size="10px" fill="#FFFFFF" font-family="sans-serif"> Hugo</text><text text-anchor="middle" pointer-events="none" x="0" y="10" font-size="10px" fill="#FFFFFF" font-family="sans-serif"> Weaving</text></g><g class="node" transform="translate(189.94432829249564,214.92743819424237)"><circle class="outline" cx="0" cy="0" r="25" fill="#57C7E3" stroke="#23b3d7" stroke-width="2px"/><text text-anchor="middle" pointer-events="none" font-family="sans-serif" dy="1.5625" font-size="25" fill="#2A2C34"/><text text-anchor="middle" pointer-events="none" font-family="sans-serif" dy="1.5625" font-size="25" fill="#2A2C34"/><text text-anchor="middle" pointer-events="none" x="0" y="0" font-size="10px" fill="#2A2C34" font-family="sans-serif"> Cloud</text><text text-anchor="middle" pointer-events="none" x="0" y="10" font-size="10px" fill="#2A2C34" font-family="sans-serif"> Atlas</text></g><g class="node" transform="translate(203.59732590453063,50.557315897848)"><circle class="outline" cx="0" cy="0" r="25" fill="#57C7E3" stroke="#23b3d7" stroke-width="2px"/><text text-anchor="middle" pointer-events="none" font-family="sans-serif" dy="1.5625" font-size="25" fill="#2A2C34"/><text text-anchor="middle" pointer-events="none" font-family="sans-serif" dy="1.5625" font-size="25" fill="#2A2C34"/><text text-anchor="middle" pointer-events="none" x="0" y="0" font-size="10px" fill="#2A2C34" font-family="sans-serif"> V for</text><text text-anchor="middle" pointer-events="none" x="0" y="10" font-size="10px" fill="#2A2C34" font-family="sans-serif"> Vendetta</text></g><g class="node" transform="translate(101.13959593468353,19.098922369130776)"><circle class="outline" cx="0" cy="0" r="25" fill="#57C7E3" stroke="#23b3d7" stroke-width="2px"/><text text-anchor="middle" pointer-events="none" font-family="sans-serif" dy="1.5625" font-size="25" fill="#2A2C34"/><text text-anchor="middle" pointer-events="none" font-family="sans-serif" dy="1.5625" font-size="25" fill="#2A2C34"/><text text-anchor="middle" pointer-events="none" font-family="sans-serif" dy="1.5625" font-size="25" fill="#2A2C34"/><text text-anchor="middle" pointer-events="none" x="0" y="-5" font-size="10px" fill="#2A2C34" font-family="sans-serif"> The</text><text text-anchor="middle" pointer-events="none" x="0" y="5" font-size="10px" fill="#2A2C34" font-family="sans-serif"> Matrix</text><text text-anchor="middle" pointer-events="none" x="0" y="15" font-size="10px" fill="#2A2C34" font-family="sans-serif"> Revol…</text></g><g class="node" transform="translate(21.11500549418117,81.65426099242296)"><circle class="outline" cx="0" cy="0" r="25" fill="#57C7E3" stroke="#23b3d7" stroke-width="2px"/><text text-anchor="middle" pointer-events="none" font-family="sans-serif" dy="1.5625" font-size="25" fill="#2A2C34"/><text text-anchor="middle" pointer-events="none" font-family="sans-serif" dy="1.5625" font-size="25" fill="#2A2C34"/><text text-anchor="middle" pointer-events="none" font-family="sans-serif" dy="1.5625" font-size="25" fill="#2A2C34"/><text text-anchor="middle" pointer-events="none" x="0" y="-5" font-size="10px" fill="#2A2C34" font-family="sans-serif"> The</text><text text-anchor="middle" pointer-events="none" x="0" y="5" font-size="10px" fill="#2A2C34" font-family="sans-serif"> Matrix</text><text text-anchor="middle" pointer-events="none" x="0" y="15" font-size="10px" fill="#2A2C34" font-family="sans-serif"> Reloa…</text></g><g class="node" transform="translate(26.938297085473824,188.71017686427297)"><circle class="outline" cx="0" cy="0" r="25" fill="#57C7E3" stroke="#23b3d7" stroke-width="2px"/><text text-anchor="middle" pointer-events="none" font-family="sans-serif" dy="1.5625" font-size="25" fill="#2A2C34"/><text text-anchor="middle" pointer-events="none" font-family="sans-serif" dy="1.5625" font-size="25" fill="#2A2C34"/><text text-anchor="middle" pointer-events="none" x="0" y="0" font-size="10px" fill="#2A2C34" font-family="sans-serif"> The</text><text text-anchor="middle" pointer-events="none" x="0" y="10" font-size="10px" fill="#2A2C34" font-family="sans-serif"> Matrix</text></g></g></svg>