<svg xmlns="http://www.w3.org/2000/svg" width="499.5687561035156" height="504.1815490722656" viewBox="-168.41119384765625 -162.26763916015625 499.5687561035156 504.1815490722656"><title>Neo4j Graph Visualization</title><desc>Created using Neo4j (http://www.neo4j.com/)</desc><g class="layer relationships"><g class="relationship" transform="translate(203.7655824924016 287.05043230996006) rotate(260.42827976571186)"><path class="outline" fill="#A5ABB6" stroke="none" d="M 25 0.5 L 34.77699681782351 0.5 L 34.77699681782351 -0.5 L 25 -0.5 Z M 80.33949681782352 0.5 L 90.11649363564702 0.5 L 90.11649363564702 3.5 L 97.11649363564702 0 L 90.11649363564702 -3.5 L 90.11649363564702 -0.5 L 80.33949681782352 -0.5 Z"/><text text-anchor="middle" pointer-events="none" font-size="8px" fill="#000000" x="57.55824681782351" y="3" transform="rotate(180 57.55824681782351 0)" font-family="sans-serif">ACTED_IN</text></g><g class="relationship" transform="translate(68.34784821123156 101.82444575611882) rotate(389.38009381400167)"><path class="outline" fill="#A5ABB6" stroke="none" d="M 25 0.5 L 39.76994583540714 0.5 L 39.76994583540714 -0.5 L 25 -0.5 Z M 85.33244583540714 0.5 L 100.10239167081428 0.5 L 100.10239167081428 3.5 L 107.10239167081428 0 L 100.10239167081428 -3.5 L 100.10239167081428 -0.5 L 85.33244583540714 -0.5 Z"/><text text-anchor="middle" pointer-events="none" font-size="8px" fill="#000000" x="62.55119583540714" y="3" font-family="sans-serif">ACTED_IN</text></g><g class="relationship" transform="translate(68.34784821123156 101.82444575611882) rotate(297.59860559094653)"><path class="outline" fill="#A5ABB6" stroke="none" d="M 25 0.5 L 37.526290091712674 0.5 L 37.526290091712674 -0.5 L 25 -0.5 Z M 83.08879009171267 0.5 L 95.61508018342535 0.5 L 95.61508018342535 3.5 L 102.61508018342535 0 L 95.61508018342535 -3.5 L 95.61508018342535 -0.5 L 83.08879009171267 -0.5 Z"/><text text-anchor="middle" pointer-events="none" font-size="8px" fill="#000000" x="60.307540091712674" y="3" font-family="sans-serif">ACTED_IN</text></g><g class="relationship" transform="translate(68.34784821123156 101.82444575611882) rotate(195.13361564337453)"><path class="outline" fill="#A5ABB6" stroke="none" d="M 25 0.5 L 38.46952637037613 0.5 L 38.46952637037613 -0.5 L 25 -0.5 Z M 84.03202637037613 0.5 L 97.50155274075226 0.5 L 97.50155274075226 3.5 L 104.50155274075226 0 L 97.50155274075226 -3.5 L 97.50155274075226 -0.5 L 84.03202637037613 -0.5 Z"/><text text-anchor="middle" pointer-events="none" font-size="8px" fill="#000000" x="61.25077637037613" y="3" transform="rotate(180 61.25077637037613 0)" font-family="sans-serif">ACTED_IN</text></g><g class="relationship" transform="translate(68.34784821123156 101.82444575611882) rotate(527.7247769886512)"><path class="outline" fill="#A5ABB6" stroke="none" d="M 25 0.5 L 27.823641128359654 0.5 L 27.823641128359654 -0.5 L 25 -0.5 Z M 73.38614112835965 0.5 L 76.20978225671931 0.5 L 76.20978225671931 3.5 L 83.20978225671931 0 L 76.20978225671931 -3.5 L 76.20978225671931 -0.5 L 73.38614112835965 -0.5 Z"/><text text-anchor="middle" pointer-events="none" font-size="8px" fill="#000000" x="50.604891128359654" y="3" transform="rotate(180 50.604891128359654 0)" font-family="sans-serif">ACTED_IN</text></g><g class="relationship" transform="translate(68.34784821123156 101.82444575611882) rotate(495.03855603787906)"><path class="outline" fill="#A5ABB6" stroke="none" d="M 25 0.5 L 36.72595278280799 0.5 L 36.72595278280799 -0.5 L 25 -0.5 Z M 82.28845278280798 0.5 L 94.01440556561597 0.5 L 94.01440556561597 3.5 L 101.01440556561597 0 L 94.01440556561597 -3.5 L 94.01440556561597 -0.5 L 82.28845278280798 -0.5 Z"/><text text-anchor="middle" pointer-events="none" font-size="8px" fill="#000000" x="59.50720278280799" y="3" transform="rotate(180 59.50720278280799 0)" font-family="sans-serif">ACTED_IN</text></g><g class="relationship" transform="translate(286.29667472523556 233.64318835288174) rotate(213.08852542659395)"><path class="outline" fill="#A5ABB6" stroke="none" d="M 25 0.5 L 35.08985870421891 0.5 L 35.08985870421891 -0.5 L 25 -0.5 Z M 80.65235870421891 0.5 L 90.74221740843782 0.5 L 90.74221740843782 3.5 L 97.74221740843782 0 L 90.74221740843782 -3.5 L 90.74221740843782 -0.5 L 80.65235870421891 -0.5 Z"/><text text-anchor="middle" pointer-events="none" font-size="8px" fill="#000000" x="57.87110870421891" y="3" transform="rotate(180 57.87110870421891 0)" font-family="sans-serif">ACTED_IN</text></g><g class="relationship" transform="translate(302.1575536405003 139.49576836047595) rotate(527.1216345976695)"><path class="outline" fill="#A5ABB6" stroke="none" d="M 25 0.5 L 34.59904492021455 0.5 L 34.59904492021455 -0.5 L 25 -0.5 Z M 80.16154492021455 0.5 L 89.7605898404291 0.5 L 89.7605898404291 3.5 L 96.7605898404291 0 L 89.7605898404291 -3.5 L 89.7605898404291 -0.5 L 80.16154492021455 -0.5 Z"/><text text-anchor="middle" pointer-events="none" font-size="8px" fill="#000000" x="57.38029492021455" y="3" transform="rotate(180 57.38029492021455 0)" font-family="sans-serif">ACTED_IN</text></g><g class="relationship" transform="translate(247.84901746065756 -10.211221219113835) rotate(180.50388788823267)"><path class="outline" fill="#A5ABB6" stroke="none" d="M 25 0.5 L 33.91125819926386 0.5 L 33.91125819926386 -0.5 L 25 -0.5 Z M 79.47375819926387 0.5 L 88.38501639852772 0.5 L 88.38501639852772 3.5 L 95.38501639852772 0 L 88.38501639852772 -3.5 L 88.38501639852772 -0.5 L 79.47375819926387 -0.5 Z"/><text text-anchor="middle" pointer-events="none" font-size="8px" fill="#000000" x="56.69250819926386" y="3" transform="rotate(180 56.69250819926386 0)" font-family="sans-serif">ACTED_IN</text></g><g class="relationship" transform="translate(220.11016813011935 -93.00112224466345) rotate(498.580271673712)"><path class="outline" fill="#A5ABB6" stroke="none" d="M 25 0.5 L 35.489367647024416 0.5 L 35.489367647024416 -0.5 L 25 -0.5 Z M 81.05186764702441 0.5 L 91.54123529404883 0.5 L 91.54123529404883 3.5 L 98.54123529404883 0 L 91.54123529404883 -3.5 L 91.54123529404883 -0.5 L 81.05186764702441 -0.5 Z"/><text text-anchor="middle" pointer-events="none" font-size="8px" fill="#000000" x="58.270617647024416" y="3" transform="rotate(180 58.270617647024416 0)" font-family="sans-serif">ACTED_IN</text></g><g class="relationship" transform="translate(138.9682209029696 -133.26763811183923) rotate(455.3848182264072)"><path class="outline" fill="#A5ABB6" stroke="none" d="M 25 0.5 L 34.98799148378232 0.5 L 34.98799148378232 -0.5 L 25 -0.5 Z M 80.55049148378231 0.5 L 90.53848296756463 0.5 L 90.53848296756463 3.5 L 97.53848296756463 0 L 90.53848296756463 -3.5 L 90.53848296756463 -0.5 L 80.55049148378231 -0.5 Z"/><text text-anchor="middle" pointer-events="none" font-size="8px" fill="#000000" x="57.76924148378232" y="3" transform="rotate(180 57.76924148378232 0)" font-family="sans-serif">ACTED_IN</text></g><g class="relationship" transform="translate(51.341506562693596 -105.92275887060218) rotate(411.19105797609546)"><path class="outline" fill="#A5ABB6" stroke="none" d="M 25 0.5 L 34.452801879015375 0.5 L 34.452801879015375 -0.5 L 25 -0.5 Z M 80.01530187901537 0.5 L 89.46810375803075 0.5 L 89.46810375803075 3.5 L 96.46810375803075 0 L 89.46810375803075 -3.5 L 89.46810375803075 -0.5 L 80.01530187901537 -0.5 Z"/><text text-anchor="middle" pointer-events="none" font-size="8px" fill="#000000" x="57.234051879015375" y="3" font-family="sans-serif">ACTED_IN</text></g><g class="relationship" transform="translate(-106.10830122912485 207.6663344927324) rotate(289.4973584823388)"><path class="outline" fill="#A5ABB6" stroke="none" d="M 25 0.5 L 47.79181941940756 0.5 L 47.79181941940756 -0.5 L 25 -0.5 Z M 93.35431941940756 0.5 L 116.14613883881512 0.5 L 116.14613883881512 3.5 L 123.14613883881512 0 L 116.14613883881512 -3.5 L 116.14613883881512 -0.5 L 93.35431941940756 -0.5 Z"/><text text-anchor="middle" pointer-events="none" font-size="8px" fill="#000000" x="70.57306941940756" y="3" font-family="sans-serif">ACTED_IN</text></g><g class="relationship" transform="translate(-106.10830122912485 207.6663344927324) rotate(309.67904132312106)"><path class="outline" fill="#A5ABB6" stroke="none" d="M 25 0.5 L 27.53376422524378 0.5 L 27.53376422524378 -0.5 L 25 -0.5 Z M 73.09626422524377 0.5 L 75.63002845048756 0.5 L 75.63002845048756 3.5 L 82.63002845048756 0 L 75.63002845048756 -3.5 L 75.63002845048756 -0.5 L 73.09626422524377 -0.5 Z"/><text text-anchor="middle" pointer-events="none" font-size="8px" fill="#000000" x="50.31501422524378" y="3" font-family="sans-serif">ACTED_IN</text></g><g class="relationship" transform="translate(-106.10830122912485 207.6663344927324) rotate(348.85932640647593)"><path class="outline" fill="#A5ABB6" stroke="none" d="M 25 0.5 L 27.407695835624068 0.5 L 27.407695835624068 -0.5 L 25 -0.5 Z M 52.52097708562407 0.5 L 54.928672921248136 0.5 L 54.928672921248136 3.5 L 61.928672921248136 0 L 54.928672921248136 -3.5 L 54.928672921248136 -0.5 L 52.52097708562407 -0.5 Z"/><text text-anchor="middle" pointer-events="none" font-size="8px" fill="#000000" x="39.96433646062407" y="3" font-family="sans-serif">AC…</text></g><g class="relationship" transform="translate(-139.41119848359534 96.93002995878823) rotate(340.7391710312495)"><path class="outline" fill="#A5ABB6" stroke="none" d="M 25 0.5 L 25.327498205849935 0.5 L 25.327498205849935 -0.5 L 25 -0.5 Z M 55.327498205849935 0.5 L 55.65499641169987 0.5 L 55.65499641169987 3.5 L 62.65499641169987 0 L 55.65499641169987 -3.5 L 55.65499641169987 -0.5 L 55.327498205849935 -0.5 Z"/><text text-anchor="middle" pointer-events="none" font-size="8px" fill="#000000" x="40.327498205849935" y="3" font-family="sans-serif">ACT…</text></g><g class="relationship" transform="translate(-139.41119848359534 96.93002995878823) rotate(375.2949193155456)"><path class="outline" fill="#A5ABB6" stroke="none" d="M 25 0.5 L 26.60348380906713 0.5 L 26.60348380906713 -0.5 L 25 -0.5 Z M 72.16598380906713 0.5 L 73.76946761813426 0.5 L 73.76946761813426 3.5 L 80.76946761813426 0 L 73.76946761813426 -3.5 L 73.76946761813426 -0.5 L 72.16598380906713 -0.5 Z"/><text text-anchor="middle" pointer-events="none" font-size="8px" fill="#000000" x="49.38473380906713" y="3" font-family="sans-serif">ACTED_IN</text></g><g class="relationship" transform="translate(-139.41119848359534 96.93002995878823) rotate(398.3833952804761)"><path class="outline" fill="#A5ABB6" stroke="none" d="M 25 0.5 L 49.36454858887093 0.5 L 49.36454858887093 -0.5 L 25 -0.5 Z M 94.92704858887093 0.5 L 119.29159717774186 0.5 L 119.29159717774186 3.5 L 126.29159717774186 0 L 119.29159717774186 -3.5 L 119.29159717774186 -0.5 L 94.92704858887093 -0.5 Z"/><text text-anchor="middle" pointer-events="none" font-size="8px" fill="#000000" x="72.14579858887093" y="3" font-family="sans-serif">ACTED_IN</text></g><g class="relationship" transform="translate(-138.06825833444435 156.90642551827307) rotate(312.483198571113)"><path class="outline" fill="#A5ABB6" stroke="none" d="M 25 0.5 L 33.9858898563808 0.5 L 33.9858898563808 -0.5 L 25 -0.5 Z M 79.5483898563808 0.5 L 88.5342797127616 0.5 L 88.5342797127616 3.5 L 95.5342797127616 0 L 88.5342797127616 -3.5 L 88.5342797127616 -0.5 L 79.5483898563808 -0.5 Z"/><text text-anchor="middle" pointer-events="none" font-size="8px" fill="#000000" x="56.7671398563808" y="3" font-family="sans-serif">ACTED_IN</text></g><g class="relationship" transform="translate(-138.06825833444435 156.90642551827307) rotate(342.32863781109165)"><path class="outline" fill="#A5ABB6" stroke="none" d="M 25 0.5 L 26.551900155753366 0.5 L 26.551900155753366 -0.5 L 25 -0.5 Z M 72.11440015575337 0.5 L 73.66630031150673 0.5 L 73.66630031150673 3.5 L 80.66630031150673 0 L 73.66630031150673 -3.5 L 73.66630031150673 -0.5 L 72.11440015575337 -0.5 Z"/><text text-anchor="middle" pointer-events="none" font-size="8px" fill="#000000" x="49.333150155753366" y="3" font-family="sans-serif">ACTED_IN</text></g><g class="relationship" transform="translate(-138.06825833444435 156.90642551827307) rotate(376.1545902248732)"><path class="outline" fill="#A5ABB6" stroke="none" d="M 25 0.5 L 34.75402035054741 0.5 L 34.75402035054741 -0.5 L 25 -0.5 Z M 80.3165203505474 0.5 L 90.07054070109481 0.5 L 90.07054070109481 3.5 L 97.07054070109481 0 L 90.07054070109481 -3.5 L 90.07054070109481 -0.5 L 80.3165203505474 -0.5 Z"/><text text-anchor="middle" pointer-events="none" font-size="8px" fill="#000000" x="57.53527035054741" y="3" font-family="sans-serif">ACTED_IN</text></g><g class="relationship" transform="translate(-6.772136986545114 312.9138992146095) rotate(263.4349104070211)"><path class="outline" fill="#A5ABB6" stroke="none" d="M 25 0.5 L 35.1434328261164 0.5 L 35.1434328261164 -0.5 L 25 -0.5 Z M 80.7059328261164 0.5 L 90.8493656522328 0.5 L 90.8493656522328 3.5 L 97.8493656522328 0 L 90.8493656522328 -3.5 L 90.8493656522328 -0.5 L 80.7059328261164 -0.5 Z"/><text text-anchor="middle" pointer-events="none" font-size="8px" fill="#000000" x="57.9246828261164" y="3" transform="rotate(180 57.9246828261164 0)" font-family="sans-serif">ACTED_IN</text></g></g><g class="layer nodes"><g class="node" transform="translate(203.7655824924016,287.05043230996006)"><circle class="outline" cx="0" cy="0" r="25" fill="#F79767" stroke="#f36924" stroke-width="2px"/><text text-anchor="middle" pointer-events="none" font-family="sans-serif" dy="1.5625" font-size="25" fill="#FFFFFF"/><text text-anchor="middle" pointer-events="none" font-family="sans-serif" dy="1.5625" font-size="25" fill="#FFFFFF"/><text text-anchor="middle" pointer-events="none" x="0" y="0" font-size="10px" fill="#FFFFFF" font-family="sans-serif"> Tom</text><text text-anchor="middle" pointer-events="none" x="0" y="10" font-size="10px" fill="#FFFFFF" font-family="sans-serif"> Hanks</text></g><g class="node" transform="translate(183.45979995487838,166.63401642988234)"><circle class="outline" cx="0" cy="0" r="25" fill="#57C7E3" stroke="#23b3d7" stroke-width="2px"/><text text-anchor="middle" pointer-events="none" font-family="sans-serif" dy="1.5625" font-size="25" fill="#2A2C34"/><text text-anchor="middle" pointer-events="none" font-family="sans-serif" dy="1.5625" font-size="25" fill="#2A2C34"/><text text-anchor="middle" pointer-events="none" x="0" y="0" font-size="10px" fill="#2A2C34" font-family="sans-serif"> Cloud</text><text text-anchor="middle" pointer-events="none" x="0" y="10" font-size="10px" fill="#2A2C34" font-family="sans-serif"> Atlas</text></g><g class="node" transform="translate(68.34784821123156,101.82444575611882)"><circle class="outline" cx="0" cy="0" r="25" fill="#F79767" stroke="#f36924" stroke-width="2px"/><text text-anchor="middle" pointer-events="none" font-family="sans-serif" dy="1.5625" font-size="25" fill="#FFFFFF"/><text text-anchor="middle" pointer-events="none" font-family="sans-serif" dy="1.5625" font-size="25" fill="#FFFFFF"/><text text-anchor="middle" pointer-events="none" x="0" y="0" font-size="10px" fill="#FFFFFF" font-family="sans-serif"> Hugo</text><text text-anchor="middle" pointer-events="none" x="0" y="10" font-size="10px" fill="#FFFFFF" font-family="sans-serif"> Weaving</text></g><g class="node" transform="translate(286.29667472523556,233.64318835288174)"><circle class="outline" cx="0" cy="0" r="25" fill="#F79767" stroke="#f36924" stroke-width="2px"/><text text-anchor="middle" pointer-events="none" font-family="sans-serif" dy="1.5625" font-size="25" fill="#FFFFFF"/><text text-anchor="middle" pointer-events="none" font-family="sans-serif" dy="1.5625" font-size="25" fill="#FFFFFF"/><text text-anchor="middle" pointer-events="none" x="0" y="0" font-size="10px" fill="#FFFFFF" font-family="sans-serif"> Jim</text><text text-anchor="middle" pointer-events="none" x="0" y="10" font-size="10px" fill="#FFFFFF" font-family="sans-serif"> Broadb…</text></g><g class="node" transform="translate(302.1575536405003,139.49576836047595)"><circle class="outline" cx="0" cy="0" r="25" fill="#F79767" stroke="#f36924" stroke-width="2px"/><text text-anchor="middle" pointer-events="none" font-family="sans-serif" dy="1.5625" font-size="25" fill="#FFFFFF"/><text text-anchor="middle" pointer-events="none" font-family="sans-serif" dy="1.5625" font-size="25" fill="#FFFFFF"/><text text-anchor="middle" pointer-events="none" x="0" y="0" font-size="10px" fill="#FFFFFF" font-family="sans-serif"> Halle</text><text text-anchor="middle" pointer-events="none" x="0" y="10" font-size="10px" fill="#FFFFFF" font-family="sans-serif"> Berry</text></g><g class="node" transform="translate(247.84901746065756,-10.211221219113835)"><circle class="outline" cx="0" cy="0" r="25" fill="#F79767" stroke="#f36924" stroke-width="2px"/><text text-anchor="middle" pointer-events="none" font-family="sans-serif" dy="1.5625" font-size="25" fill="#FFFFFF"/><text text-anchor="middle" pointer-events="none" x="0" y="5" font-size="10px" fill="#FFFFFF" font-family="sans-serif"> John Hurt</text></g><g class="node" transform="translate(127.46865651801478,-11.269933924635753)"><circle class="outline" cx="0" cy="0" r="25" fill="#57C7E3" stroke="#23b3d7" stroke-width="2px"/><text text-anchor="middle" pointer-events="none" font-family="sans-serif" dy="1.5625" font-size="25" fill="#2A2C34"/><text text-anchor="middle" pointer-events="none" font-family="sans-serif" dy="1.5625" font-size="25" fill="#2A2C34"/><text text-anchor="middle" pointer-events="none" x="0" y="0" font-size="10px" fill="#2A2C34" font-family="sans-serif"> V for</text><text text-anchor="middle" pointer-events="none" x="0" y="10" font-size="10px" fill="#2A2C34" font-family="sans-serif"> Vendetta</text></g><g class="node" transform="translate(220.11016813011935,-93.00112224466345)"><circle class="outline" cx="0" cy="0" r="25" fill="#F79767" stroke="#f36924" stroke-width="2px"/><text text-anchor="middle" pointer-events="none" font-family="sans-serif" dy="1.5625" font-size="25" fill="#FFFFFF"/><text text-anchor="middle" pointer-events="none" font-family="sans-serif" dy="1.5625" font-size="25" fill="#FFFFFF"/><text text-anchor="middle" pointer-events="none" x="0" y="0" font-size="10px" fill="#FFFFFF" font-family="sans-serif"> Stephen</text><text text-anchor="middle" pointer-events="none" x="0" y="10" font-size="10px" fill="#FFFFFF" font-family="sans-serif"> Rea</text></g><g class="node" transform="translate(138.9682209029696,-133.26763811183923)"><circle class="outline" cx="0" cy="0" r="25" fill="#F79767" stroke="#f36924" stroke-width="2px"/><text text-anchor="middle" pointer-events="none" font-family="sans-serif" dy="1.5625" font-size="25" fill="#FFFFFF"/><text text-anchor="middle" pointer-events="none" font-family="sans-serif" dy="1.5625" font-size="25" fill="#FFFFFF"/><text text-anchor="middle" pointer-events="none" x="0" y="0" font-size="10px" fill="#FFFFFF" font-family="sans-serif"> Natalie</text><text text-anchor="middle" pointer-events="none" x="0" y="10" font-size="10px" fill="#FFFFFF" font-family="sans-serif"> Portman</text></g><g class="node" transform="translate(51.341506562693596,-105.92275887060218)"><circle class="outline" cx="0" cy="0" r="25" fill="#F79767" stroke="#f36924" stroke-width="2px"/><text text-anchor="middle" pointer-events="none" font-family="sans-serif" dy="1.5625" font-size="25" fill="#FFFFFF"/><text text-anchor="middle" pointer-events="none" x="0" y="5" font-size="10px" fill="#FFFFFF" font-family="sans-serif"> Ben Miles</text></g><g class="node" transform="translate(-106.10830122912485,207.6663344927324)"><circle class="outline" cx="0" cy="0" r="25" fill="#F79767" stroke="#f36924" stroke-width="2px"/><text text-anchor="middle" pointer-events="none" font-family="sans-serif" dy="1.5625" font-size="25" fill="#FFFFFF"/><text text-anchor="middle" pointer-events="none" font-family="sans-serif" dy="1.5625" font-size="25" fill="#FFFFFF"/><text text-anchor="middle" pointer-events="none" x="0" y="0" font-size="10px" fill="#FFFFFF" font-family="sans-serif"> Laurence</text><text text-anchor="middle" pointer-events="none" x="0" y="10" font-size="10px" fill="#FFFFFF" font-family="sans-serif"> Fishbur…</text></g><g class="node" transform="translate(-56.662542217368454,68.01535752299975)"><circle class="outline" cx="0" cy="0" r="25" fill="#57C7E3" stroke="#23b3d7" stroke-width="2px"/><text text-anchor="middle" pointer-events="none" font-family="sans-serif" dy="1.5625" font-size="25" fill="#2A2C34"/><text text-anchor="middle" pointer-events="none" font-family="sans-serif" dy="1.5625" font-size="25" fill="#2A2C34"/><text text-anchor="middle" pointer-events="none" font-family="sans-serif" dy="1.5625" font-size="25" fill="#2A2C34"/><text text-anchor="middle" pointer-events="none" x="0" y="-5" font-size="10px" fill="#2A2C34" font-family="sans-serif"> The</text><text text-anchor="middle" pointer-events="none" x="0" y="5" font-size="10px" fill="#2A2C34" font-family="sans-serif"> Matrix</text><text text-anchor="middle" pointer-events="none" x="0" y="15" font-size="10px" fill="#2A2C34" font-family="sans-serif"> Revol…</text></g><g class="node" transform="translate(-139.41119848359534,96.93002995878823)"><circle class="outline" cx="0" cy="0" r="25" fill="#F79767" stroke="#f36924" stroke-width="2px"/><text text-anchor="middle" pointer-events="none" font-family="sans-serif" dy="1.5625" font-size="25" fill="#FFFFFF"/><text text-anchor="middle" pointer-events="none" x="0" y="5" font-size="10px" fill="#FFFFFF" font-family="sans-serif"> Carrie-A…</text></g><g class="node" transform="translate(-138.06825833444435,156.90642551827307)"><circle class="outline" cx="0" cy="0" r="25" fill="#F79767" stroke="#f36924" stroke-width="2px"/><text text-anchor="middle" pointer-events="none" font-family="sans-serif" dy="1.5625" font-size="25" fill="#FFFFFF"/><text text-anchor="middle" pointer-events="none" font-family="sans-serif" dy="1.5625" font-size="25" fill="#FFFFFF"/><text text-anchor="middle" pointer-events="none" x="0" y="0" font-size="10px" fill="#FFFFFF" font-family="sans-serif"> Keanu</text><text text-anchor="middle" pointer-events="none" x="0" y="10" font-size="10px" fill="#FFFFFF" font-family="sans-serif"> Reeves</text></g><g class="node" transform="translate(-37.3879993627419,124.83069520838835)"><circle class="outline" cx="0" cy="0" r="25" fill="#57C7E3" stroke="#23b3d7" stroke-width="2px"/><text text-anchor="middle" pointer-events="none" font-family="sans-serif" dy="1.5625" font-size="25" fill="#2A2C34"/><text text-anchor="middle" pointer-events="none" font-family="sans-serif" dy="1.5625" font-size="25" fill="#2A2C34"/><text text-anchor="middle" pointer-events="none" font-family="sans-serif" dy="1.5625" font-size="25" fill="#2A2C34"/><text text-anchor="middle" pointer-events="none" x="0" y="-5" font-size="10px" fill="#2A2C34" font-family="sans-serif"> The</text><text text-anchor="middle" pointer-events="none" x="0" y="5" font-size="10px" fill="#2A2C34" font-family="sans-serif"> Matrix</text><text text-anchor="middle" pointer-events="none" x="0" y="15" font-size="10px" fill="#2A2C34" font-family="sans-serif"> Reloa…</text></g><g class="node" transform="translate(-6.772136986545114,312.9138992146095)"><circle class="outline" cx="0" cy="0" r="25" fill="#F79767" stroke="#f36924" stroke-width="2px"/><text text-anchor="middle" pointer-events="none" font-family="sans-serif" dy="1.5625" font-size="25" fill="#FFFFFF"/><text text-anchor="middle" pointer-events="none" font-family="sans-serif" dy="1.5625" font-size="25" fill="#FFFFFF"/><text text-anchor="middle" pointer-events="none" x="0" y="0" font-size="10px" fill="#FFFFFF" font-family="sans-serif"> Emil</text><text text-anchor="middle" pointer-events="none" x="0" y="10" font-size="10px" fill="#FFFFFF" font-family="sans-serif"> Eifrem</text></g><g class="node" transform="translate(-20.817734153473737,190.87010444658222)"><circle class="outline" cx="0" cy="0" r="25" fill="#57C7E3" stroke="#23b3d7" stroke-width="2px"/><text text-anchor="middle" pointer-events="none" font-family="sans-serif" dy="1.5625" font-size="25" fill="#2A2C34"/><text text-anchor="middle" pointer-events="none" font-family="sans-serif" dy="1.5625" font-size="25" fill="#2A2C34"/><text text-anchor="middle" pointer-events="none" x="0" y="0" font-size="10px" fill="#2A2C34" font-family="sans-serif"> The</text><text text-anchor="middle" pointer-events="none" x="0" y="10" font-size="10px" fill="#2A2C34" font-family="sans-serif"> Matrix</text></g></g></svg>