<svg xmlns="http://www.w3.org/2000/svg" width="410.4825744628906" height="309.1131896972656" viewBox="-84.55069732666016 -72.6390151977539 410.4825744628906 309.1131896972656"><title>Neo4j Graph Visualization</title><desc>Created using Neo4j (http://www.neo4j.com/)</desc><g class="layer relationships"><g class="relationship" transform="translate(296.93187190332253 177.03223357179232) rotate(219.82751529235026)"><path class="outline" fill="#A5ABB6" stroke="none" d="M 25 0.5 L 27.717859880324028 0.5 L 27.717859880324028 -0.5 L 25 -0.5 Z M 74.60848488032403 0.5 L 77.32634476064806 0.5 L 77.32634476064806 3.5 L 84.32634476064806 0 L 77.32634476064806 -3.5 L 77.32634476064806 -0.5 L 74.60848488032403 -0.5 Z"/><text text-anchor="middle" pointer-events="none" font-size="8px" fill="#000000" x="51.16317238032403" y="3" transform="rotate(180 51.16317238032403 0)" font-family="sans-serif">DIRECTED</text></g><g class="relationship" transform="translate(114.03770390093528 127.12877262232229) rotate(348.5059284220748)"><path class="outline" fill="#A5ABB6" stroke="none" d="M 25 0.5 L 25.09075414738156 0.5 L 25.09075414738156 -0.5 L 25 -0.5 Z M 68.86809789738156 0.5 L 68.95885204476312 0.5 L 68.95885204476312 3.5 L 75.95885204476312 0 L 68.95885204476312 -3.5 L 68.95885204476312 -0.5 L 68.86809789738156 -0.5 Z"/><text text-anchor="middle" pointer-events="none" font-size="8px" fill="#000000" x="46.97942602238156" y="3" font-family="sans-serif">DIRECT…</text></g><g class="relationship" transform="translate(97.6149176398054 69.46301970216845) rotate(378.02977569443016)"><path class="outline" fill="#A5ABB6" stroke="none" d="M 25 0.5 L 33.71167118218576 0.5 L 33.71167118218576 -0.5 L 25 -0.5 Z M 80.60229618218577 0.5 L 89.31396736437152 0.5 L 89.31396736437152 3.5 L 96.31396736437152 0 L 89.31396736437152 -3.5 L 89.31396736437152 -0.5 L 80.60229618218577 -0.5 Z"/><text text-anchor="middle" pointer-events="none" font-size="8px" fill="#000000" x="57.15698368218576" y="3" font-family="sans-serif">DIRECTED</text></g><g class="relationship" transform="translate(-55.55069534361962 -43.63901695613253) rotate(413.63664626374174)"><path class="outline" fill="#A5ABB6" stroke="none" d="M 25 0.5 L 27.92064526936381 0.5 L 27.92064526936381 -0.5 L 25 -0.5 Z M 74.8112702693638 0.5 L 77.73191553872762 0.5 L 77.73191553872762 3.5 L 84.73191553872762 0 L 77.73191553872762 -3.5 L 77.73191553872762 -0.5 L 74.8112702693638 -0.5 Z"/><text text-anchor="middle" pointer-events="none" font-size="8px" fill="#000000" x="51.36595776936381" y="3" font-family="sans-serif">DIRECTED</text></g><g class="relationship" transform="translate(114.03770390093528 127.12877262232229) rotate(298.9805871574365)"><path class="outline" fill="#A5ABB6" stroke="none" d="M 25 0.5 L 37.119917582079836 0.5 L 37.119917582079836 -0.5 L 25 -0.5 Z M 84.01054258207984 0.5 L 96.13046016415967 0.5 L 96.13046016415967 3.5 L 103.13046016415967 0 L 96.13046016415967 -3.5 L 96.13046016415967 -0.5 L 84.01054258207984 -0.5 Z"/><text text-anchor="middle" pointer-events="none" font-size="8px" fill="#000000" x="60.565230082079836" y="3" font-family="sans-serif">DIRECTED</text></g><g class="relationship" transform="translate(97.6149176398054 69.46301970216845) rotate(325.2693371153417)"><path class="outline" fill="#A5ABB6" stroke="none" d="M 25 0.5 L 27.704336601955198 0.5 L 27.704336601955198 -0.5 L 25 -0.5 Z M 60.8176178519552 0.5 L 63.521954453910396 0.5 L 63.521954453910396 3.5 L 70.5219544539104 0 L 63.521954453910396 -3.5 L 63.521954453910396 -0.5 L 60.8176178519552 -0.5 Z"/><text text-anchor="middle" pointer-events="none" font-size="8px" fill="#000000" x="44.2609772269552" y="3" font-family="sans-serif">DIRE…</text></g><g class="relationship" transform="translate(114.03770390093528 127.12877262232229) rotate(531.3609249060889)"><path class="outline" fill="#A5ABB6" stroke="none" d="M 25 0.5 L 27.043647546875974 0.5 L 27.043647546875974 -0.5 L 25 -0.5 Z M 73.93427254687597 0.5 L 75.97792009375195 0.5 L 75.97792009375195 3.5 L 82.97792009375195 0 L 75.97792009375195 -3.5 L 75.97792009375195 -0.5 L 73.93427254687597 -0.5 Z"/><text text-anchor="middle" pointer-events="none" font-size="8px" fill="#000000" x="50.488960046875974" y="3" transform="rotate(180 50.488960046875974 0)" font-family="sans-serif">DIRECTED</text></g><g class="relationship" transform="translate(97.6149176398054 69.46301970216845) rotate(500.718692935791)"><path class="outline" fill="#A5ABB6" stroke="none" d="M 25 0.5 L 31.40389414455175 0.5 L 31.40389414455175 -0.5 L 25 -0.5 Z M 78.29451914455174 0.5 L 84.6984132891035 0.5 L 84.6984132891035 3.5 L 91.6984132891035 0 L 84.6984132891035 -3.5 L 84.6984132891035 -0.5 L 78.29451914455174 -0.5 Z"/><text text-anchor="middle" pointer-events="none" font-size="8px" fill="#000000" x="54.84920664455175" y="3" transform="rotate(180 54.84920664455175 0)" font-family="sans-serif">DIRECTED</text></g><g class="relationship" transform="translate(114.03770390093528 127.12877262232229) rotate(473.3818672855829)"><path class="outline" fill="#A5ABB6" stroke="none" d="M 25 0.5 L 26.378150956667106 0.5 L 26.378150956667106 -0.5 L 25 -0.5 Z M 54.155494706667106 0.5 L 55.53364566333421 0.5 L 55.53364566333421 3.5 L 62.53364566333421 0 L 55.53364566333421 -3.5 L 55.53364566333421 -0.5 L 54.155494706667106 -0.5 Z"/><text text-anchor="middle" pointer-events="none" font-size="8px" fill="#000000" x="40.266822831667106" y="3" transform="rotate(180 40.266822831667106 0)" font-family="sans-serif">DIR…</text></g><g class="relationship" transform="translate(97.6149176398054 69.46301970216845) rotate(457.5596029830236)"><path class="outline" fill="#A5ABB6" stroke="none" d="M 25 0.5 L 42.66528453339792 0.5 L 42.66528453339792 -0.5 L 25 -0.5 Z M 89.55590953339792 0.5 L 107.22119406679585 0.5 L 107.22119406679585 3.5 L 114.22119406679585 0 L 107.22119406679585 -3.5 L 107.22119406679585 -0.5 L 89.55590953339792 -0.5 Z"/><text text-anchor="middle" pointer-events="none" font-size="8px" fill="#000000" x="66.11059703339792" y="3" transform="rotate(180 66.11059703339792 0)" font-family="sans-serif">DIRECTED</text></g><g class="relationship" transform="translate(114.03770390093528 127.12877262232229) rotate(218.25015517832708)"><path class="outline" fill="#A5ABB6" stroke="none" d="M 24.018736134675446,6.953439040707552 L 24.277555179777966,5.987513214418485 A 157.5431518051332 157.5431518051332 0 0 0 37.34820601910058,8.900567840188955 L 37.17235250242351,9.884984185376425 A 158.5431518051332 158.5431518051332 0 0 1 24.018736134675446,6.953439040707552 Z M 88.88105455598836,10.554791814641561 L 88.73075899927551,9.566150704009203 A 157.5431518051332 157.5431518051332 0 0 0 101.87247998423169,6.992637508051657 L 101.17134338254651,4.075720048510273 L 108.79547682344244,5.842805014043141 L 102.80732878647858,10.881860787440168 L 102.1061921847934,7.9649433278987845 A 158.5431518051332 158.5431518051332 0 0 1 88.88105455598836,10.554791814641561"/><text text-anchor="middle" pointer-events="none" font-size="8px" fill="#000000" x="63.00568624437163" y="14.842408365541502" transform="rotate(180 63.00568624437163 11.842408365541502)" font-family="sans-serif">PRODUCED</text></g><g class="relationship" transform="translate(114.03770390093528 127.12877262232229) rotate(218.25015517832708)"><path class="outline" fill="#A5ABB6" stroke="none" d="M 24.018736134675446,-6.953439040707552 L 24.277555179777966,-5.987513214418485 A 157.5431518051332 157.5431518051332 0 0 1 45.23461847880774,-10.104188260648812 L 45.108823707111604,-11.096244547063009 A 158.5431518051332 158.5431518051332 0 0 0 24.018736134675446,-6.953439040707552 Z M 80.9158714585163,-11.56007041800649 L 80.81581574506872,-10.565088581887608 A 157.5431518051332 157.5431518051332 0 0 1 101.87247998423169,-6.992637508051657 L 101.17134338254651,-4.075720048510273 L 108.79547682344244,-5.842805014043141 L 102.80732878647858,-10.881860787440168 L 102.1061921847934,-7.9649433278987845 A 158.5431518051332 158.5431518051332 0 0 0 80.9158714585163,-11.56007041800649"/><text text-anchor="middle" pointer-events="none" font-size="8px" fill="#000000" x="63.005686244371596" y="-8.842408365541502" transform="rotate(180 63.005686244371596 -11.842408365541502)" font-family="sans-serif">WROTE</text></g><g class="relationship" transform="translate(97.6149176398054 69.46301970216845) rotate(195.6835052586274)"><path class="outline" fill="#A5ABB6" stroke="none" d="M 24.018736134675446,6.953439040707552 L 24.277555179777966,5.987513214418485 A 74.56362581841924 74.56362581841924 0 0 0 26.783268304958384,6.612616819432191 L 26.558054293110043,7.586926138317722 A 75.56362581841924 75.56362581841924 0 0 1 24.018736134675446,6.953439040707552 Z M 57.86884340814087,8.164159255856106 L 57.67969417608835,7.182210902828345 A 74.56362581841924 74.56362581841924 0 0 0 60.206745126749105,6.649889312559149 L 59.537623822732876,3.725461730875577 L 67.14192970134681,5.576010866801884 L 61.09890686543741,10.549126088137246 L 60.42978556142118,7.624698506453673 A 75.56362581841924 75.56362581841924 0 0 1 57.86884340814087,8.164159255856106"/><text text-anchor="middle" pointer-events="none" font-size="8px" fill="#000000" x="42.192433896501264" y="12.015454418802776" transform="rotate(180 42.192433896501264 9.015454418802776)" font-family="sans-serif">PRO…</text></g><g class="relationship" transform="translate(97.6149176398054 69.46301970216845) rotate(195.6835052586274)"><path class="outline" fill="#A5ABB6" stroke="none" d="M 24.018736134675446,-6.953439040707552 L 24.277555179777966,-5.987513214418485 A 74.56362581841924 74.56362581841924 0 0 1 24.643566929521896,-6.08459033028754 L 24.389656601581752,-7.051818093208624 A 75.56362581841924 75.56362581841924 0 0 0 24.018736134675446,-6.953439040707552 Z M 60.05549101838209,-7.709339074694682 L 59.83740395299299,-6.733409757628138 A 74.56362581841924 74.56362581841924 0 0 1 60.206745126749105,-6.649889312559149 L 59.537623822732876,-3.725461730875577 L 67.14192970134681,-5.576010866801884 L 61.09890686543741,-10.549126088137246 L 60.42978556142118,-7.624698506453673 A 75.56362581841924 75.56362581841924 0 0 0 60.05549101838209,-7.709339074694682"/><text text-anchor="middle" pointer-events="none" font-size="8px" fill="#000000" x="42.19243389650123" y="-6.015454418802776" transform="rotate(180 42.19243389650123 -9.015454418802776)" font-family="sans-serif">WROTE</text></g></g><g class="layer nodes"><g class="node" transform="translate(296.93187190332253,177.03223357179232)"><circle class="outline" cx="0" cy="0" r="25" fill="#F79767" stroke="#f36924" stroke-width="2px"/><text text-anchor="middle" pointer-events="none" font-family="sans-serif" dy="1.5625" font-size="25" fill="#FFFFFF"/><text text-anchor="middle" pointer-events="none" font-family="sans-serif" dy="1.5625" font-size="25" fill="#FFFFFF"/><text text-anchor="middle" pointer-events="none" x="0" y="0" font-size="10px" fill="#FFFFFF" font-family="sans-serif"> Tom</text><text text-anchor="middle" pointer-events="none" x="0" y="10" font-size="10px" fill="#FFFFFF" font-family="sans-serif"> Tykwer</text></g><g class="node" transform="translate(212.9718592897117,107.01105148632345)"><circle class="outline" cx="0" cy="0" r="25" fill="#57C7E3" stroke="#23b3d7" stroke-width="2px"/><text text-anchor="middle" pointer-events="none" font-family="sans-serif" dy="1.5625" font-size="25" fill="#2A2C34"/><text text-anchor="middle" pointer-events="none" font-family="sans-serif" dy="1.5625" font-size="25" fill="#2A2C34"/><text text-anchor="middle" pointer-events="none" x="0" y="0" font-size="10px" fill="#2A2C34" font-family="sans-serif"> Cloud</text><text text-anchor="middle" pointer-events="none" x="0" y="10" font-size="10px" fill="#2A2C34" font-family="sans-serif"> Atlas</text></g><g class="node" transform="translate(114.03770390093528,127.12877262232229)"><circle class="outline" cx="0" cy="0" r="25" fill="#F79767" stroke="#f36924" stroke-width="2px"/><text text-anchor="middle" pointer-events="none" font-family="sans-serif" dy="1.5625" font-size="25" fill="#FFFFFF"/><text text-anchor="middle" pointer-events="none" font-family="sans-serif" dy="1.5625" font-size="25" fill="#FFFFFF"/><text text-anchor="middle" pointer-events="none" x="0" y="0" font-size="10px" fill="#FFFFFF" font-family="sans-serif"> Lana</text><text text-anchor="middle" pointer-events="none" x="0" y="10" font-size="10px" fill="#FFFFFF" font-family="sans-serif"> Wacho…</text></g><g class="node" transform="translate(97.6149176398054,69.46301970216845)"><circle class="outline" cx="0" cy="0" r="25" fill="#F79767" stroke="#f36924" stroke-width="2px"/><text text-anchor="middle" pointer-events="none" font-family="sans-serif" dy="1.5625" font-size="25" fill="#FFFFFF"/><text text-anchor="middle" pointer-events="none" font-family="sans-serif" dy="1.5625" font-size="25" fill="#FFFFFF"/><text text-anchor="middle" pointer-events="none" x="0" y="0" font-size="10px" fill="#FFFFFF" font-family="sans-serif"> Lilly</text><text text-anchor="middle" pointer-events="none" x="0" y="10" font-size="10px" fill="#FFFFFF" font-family="sans-serif"> Wacho…</text></g><g class="node" transform="translate(-55.55069534361962,-43.63901695613253)"><circle class="outline" cx="0" cy="0" r="25" fill="#F79767" stroke="#f36924" stroke-width="2px"/><text text-anchor="middle" pointer-events="none" font-family="sans-serif" dy="1.5625" font-size="25" fill="#FFFFFF"/><text text-anchor="middle" pointer-events="none" font-family="sans-serif" dy="1.5625" font-size="25" fill="#FFFFFF"/><text text-anchor="middle" pointer-events="none" x="0" y="0" font-size="10px" fill="#FFFFFF" font-family="sans-serif"> James</text><text text-anchor="middle" pointer-events="none" x="0" y="10" font-size="10px" fill="#FFFFFF" font-family="sans-serif"> Marshall</text></g><g class="node" transform="translate(9.509791569582815,44.72515185914839)"><circle class="outline" cx="0" cy="0" r="25" fill="#57C7E3" stroke="#23b3d7" stroke-width="2px"/><text text-anchor="middle" pointer-events="none" font-family="sans-serif" dy="1.5625" font-size="25" fill="#2A2C34"/><text text-anchor="middle" pointer-events="none" font-family="sans-serif" dy="1.5625" font-size="25" fill="#2A2C34"/><text text-anchor="middle" pointer-events="none" x="0" y="0" font-size="10px" fill="#2A2C34" font-family="sans-serif"> V for</text><text text-anchor="middle" pointer-events="none" x="0" y="10" font-size="10px" fill="#2A2C34" font-family="sans-serif"> Vendetta</text></g><g class="node" transform="translate(176.11861028470304,15.042306514905139)"><circle class="outline" cx="0" cy="0" r="25" fill="#57C7E3" stroke="#23b3d7" stroke-width="2px"/><text text-anchor="middle" pointer-events="none" font-family="sans-serif" dy="1.5625" font-size="25" fill="#2A2C34"/><text text-anchor="middle" pointer-events="none" font-family="sans-serif" dy="1.5625" font-size="25" fill="#2A2C34"/><text text-anchor="middle" pointer-events="none" font-family="sans-serif" dy="1.5625" font-size="25" fill="#2A2C34"/><text text-anchor="middle" pointer-events="none" x="0" y="-5" font-size="10px" fill="#2A2C34" font-family="sans-serif"> The</text><text text-anchor="middle" pointer-events="none" x="0" y="5" font-size="10px" fill="#2A2C34" font-family="sans-serif"> Matrix</text><text text-anchor="middle" pointer-events="none" x="0" y="15" font-size="10px" fill="#2A2C34" font-family="sans-serif"> Revol…</text></g><g class="node" transform="translate(7.284882970200805,143.34809600843235)"><circle class="outline" cx="0" cy="0" r="25" fill="#57C7E3" stroke="#23b3d7" stroke-width="2px"/><text text-anchor="middle" pointer-events="none" font-family="sans-serif" dy="1.5625" font-size="25" fill="#2A2C34"/><text text-anchor="middle" pointer-events="none" font-family="sans-serif" dy="1.5625" font-size="25" fill="#2A2C34"/><text text-anchor="middle" pointer-events="none" font-family="sans-serif" dy="1.5625" font-size="25" fill="#2A2C34"/><text text-anchor="middle" pointer-events="none" x="0" y="-5" font-size="10px" fill="#2A2C34" font-family="sans-serif"> The</text><text text-anchor="middle" pointer-events="none" x="0" y="5" font-size="10px" fill="#2A2C34" font-family="sans-serif"> Matrix</text><text text-anchor="middle" pointer-events="none" x="0" y="15" font-size="10px" fill="#2A2C34" font-family="sans-serif"> Reloa…</text></g><g class="node" transform="translate(79.29932678420158,207.47417870387582)"><circle class="outline" cx="0" cy="0" r="25" fill="#57C7E3" stroke="#23b3d7" stroke-width="2px"/><text text-anchor="middle" pointer-events="none" font-family="sans-serif" dy="1.5625" font-size="25" fill="#2A2C34"/><text text-anchor="middle" pointer-events="none" font-family="sans-serif" dy="1.5625" font-size="25" fill="#2A2C34"/><text text-anchor="middle" pointer-events="none" x="0" y="0" font-size="10px" fill="#2A2C34" font-family="sans-serif"> The</text><text text-anchor="middle" pointer-events="none" x="0" y="10" font-size="10px" fill="#2A2C34" font-family="sans-serif"> Matrix</text></g></g></svg>